<?xml version="1.0" encoding="iso-8859-1"?>
<!-- Uploaded to: SVG Repo, www.svgrepo.com, Generator: SVG Repo Mixer Tools -->
<svg version="1.1" id="Layer_1" xmlns="http://www.w3.org/2000/svg" xmlns:xlink="http://www.w3.org/1999/xlink" 
	 viewBox="0 0 512 512" xml:space="preserve">
<path style="fill:#AA1921;" d="M373.784,70.212c-76.326,0-138.205,61.869-138.205,138.205c0,76.326,61.88,138.205,138.205,138.205
	c76.336,0,138.216-61.88,138.216-138.205C511.995,132.081,450.115,70.212,373.784,70.212z M373.784,310.85
	c-56.567,0-102.428-45.866-102.428-102.433c0-56.583,45.866-102.433,102.428-102.433c56.583,0,102.438,45.855,102.438,102.433
	C476.222,264.99,430.362,310.85,373.784,310.85z"/>
<path style="fill:#F05B56;" d="M379.566,23.031v336.697c0,46.778-37.928,84.707-84.707,84.707H84.707
	C37.928,444.434,0,406.506,0,359.728V23.031H379.566z"/>
<path style="fill:#CC333C;" d="M338.089,23.031v295.225c0,46.779-37.923,84.707-84.707,84.707H43.225
	c-12.646,0-24.606-2.852-35.386-7.829c13.409,29.083,42.745,49.3,76.867,49.3h210.152c46.778,0,84.707-37.928,84.707-84.707V23.031
	H338.089z"/>
<rect x="90.117" y="444.424" style="fill:#AA1921;" width="199.332" height="44.545"/>
</svg>