<?xml version="1.0" encoding="UTF-8"?>
<!DOCTYPE svg PUBLIC "-//W3C//DTD SVG 1.1//EN" "http://www.w3.org/Graphics/SVG/1.1/DTD/svg11.dtd">
<svg version="1.1" xmlns="http://www.w3.org/2000/svg" xmlns:xlink="http://www.w3.org/1999/xlink" x="0" y="0" width="210" height="325" viewBox="0, 0, 210, 325">
  <defs>
    <linearGradient id="Gradient_1" gradientUnits="userSpaceOnUse" x1="376.045" y1="1718.156" x2="2573.255" y2="1298.976" gradientTransform="matrix(0.072, 0, 0, 0.072, 0, 0)">
      <stop offset="0" stop-color="#F6F29C"/>
      <stop offset="1" stop-color="#C2E2C3"/>
    </linearGradient>
    <linearGradient id="Gradient_2" gradientUnits="userSpaceOnUse" x1="1735.657" y1="2338.171" x2="2442.156" y2="4184.386" gradientTransform="matrix(0.072, 0, 0, 0.072, 0, 0)">
      <stop offset="0" stop-color="#F79733"/>
      <stop offset="1" stop-color="#FFF79C"/>
    </linearGradient>
    <linearGradient id="Gradient_3" gradientUnits="userSpaceOnUse" x1="1191.475" y1="1291.306" x2="1200.365" y2="1289.616" gradientTransform="matrix(0.072, 0, 0, 0.072, 0, 0)">
      <stop offset="0" stop-color="#F6F29C"/>
      <stop offset="1" stop-color="#C2E2C3"/>
    </linearGradient>
    <linearGradient id="Gradient_4" gradientUnits="userSpaceOnUse" x1="1241.475" y1="3044.966" x2="1365.806" y2="3212.486" gradientTransform="matrix(0.072, 0, 0, 0.072, 0, 0)">
      <stop offset="0" stop-color="#93A5D4"/>
      <stop offset="1" stop-color="#C2E2C3"/>
    </linearGradient>
    <linearGradient id="Gradient_5" gradientUnits="userSpaceOnUse" x1="1465.546" y1="3205.246" x2="1537.146" y2="3301.716" gradientTransform="matrix(0.072, 0, 0, 0.072, 0, 0)">
      <stop offset="0" stop-color="#93A5D4"/>
      <stop offset="1" stop-color="#C2E2C3"/>
    </linearGradient>
    <linearGradient id="Gradient_6" gradientUnits="userSpaceOnUse" x1="2676.746" y1="3007.096" x2="2759.076" y2="3118.036" gradientTransform="matrix(0.072, 0, 0, 0.072, 0, 0)">
      <stop offset="0" stop-color="#93A5D4"/>
      <stop offset="1" stop-color="#C2E2C3"/>
    </linearGradient>
    <linearGradient id="Gradient_7" gradientUnits="userSpaceOnUse" x1="2502.395" y1="3223.106" x2="2544.715" y2="3280.116" gradientTransform="matrix(0.072, 0, 0, 0.072, 0, 0)">
      <stop offset="0" stop-color="#93A5D4"/>
      <stop offset="1" stop-color="#C2E2C3"/>
    </linearGradient>
  </defs>
  <g id="Layer_2">
    <path d="M36.747,62.033 L32.643,58.793 C32.643,58.793 32.571,52.169 29.979,49.865 C27.387,47.489 21.267,48.209 21.267,48.209 C21.267,48.209 14.787,45.257 11.619,42.665 C11.619,42.665 7.66,40.145 5.86,42.089 C3.412,44.753 9.243,48.497 12.123,50.225 C14.931,51.953 14.355,51.881 14.355,51.881 C14.355,51.881 11.115,52.097 10.539,53.897 C9.747,56.345 12.339,57.353 12.339,57.353 C12.339,57.353 11.403,58.289 11.403,59.441 C11.403,61.025 12.915,61.745 13.635,61.745 C13.635,61.745 12.051,63.977 14.211,65.417 C16.371,66.857 19.971,66.065 20.763,65.633 C20.763,65.633 25.659,68.297 28.035,64.985 L33.003,68.225 L36.675,62.105 z" fill="#FDDDC7" id="path54410"/>
    <path d="M36.747,62.033 L32.643,58.793 C32.643,58.793 32.571,52.169 29.979,49.865 C27.387,47.489 21.267,48.209 21.267,48.209 C21.267,48.209 14.787,45.257 11.619,42.665 C11.619,42.665 7.66,40.145 5.86,42.089 C3.412,44.753 9.243,48.497 12.123,50.225 C14.931,51.953 14.355,51.881 14.355,51.881 C14.355,51.881 11.115,52.097 10.539,53.897 C9.747,56.345 12.339,57.353 12.339,57.353 C12.339,57.353 11.403,58.289 11.403,59.441 C11.403,61.025 12.915,61.745 13.635,61.745 C13.635,61.745 12.051,63.977 14.211,65.417 C16.371,66.857 19.971,66.065 20.763,65.633 C20.763,65.633 25.659,68.297 28.035,64.985 L33.003,68.225 L36.675,62.105 z" fill-opacity="0" stroke="#373435" stroke-width="2.133" stroke-linejoin="round" id="path54412"/>
    <path d="M66.986,45.833 C66.986,45.833 65.618,44.681 61.586,43.385 C61.586,43.385 65.114,11.849 89.449,6.305 C89.449,6.305 106.225,0.473 117.817,9.833 C117.817,9.833 139.776,12.857 138.984,40.721 C138.984,40.721 140.568,56.561 129.192,71.177 L115.585,73.769 z" fill="#82654C" id="path54438"/>
    <path d="M98.665,152.536 C98.665,152.536 98.089,166.144 101.905,175.648 C103.849,180.4 109.033,175.072 109.033,175.072 L151.368,167.656 L146.04,147.568 L120.625,135.76 L98.737,152.608 z" fill="#95BFE6" id="path54398"/>
    <path d="M98.665,152.536 C98.665,152.536 98.089,166.144 101.905,175.648 C103.849,180.4 109.033,175.072 109.033,175.072 L151.368,167.656 L146.04,147.568 L120.625,135.76 L98.737,152.608 z" fill-opacity="0" stroke="#373435" stroke-width="2.133" stroke-linejoin="round" id="path54400"/>
    <path d="M105.433,86.513 L100.825,90.761 L102.049,87.233 L34.443,57.857 C30.267,65.201 28.611,67.865 28.611,67.865 C33.939,72.761 68.138,87.593 86.281,95.297 C87.433,105.665 89.089,135.832 94.849,159.232 L183.695,128.704 C183.695,128.704 169.871,82.193 105.433,86.441 z" fill="url(#Gradient_1)" id="path54426"/>
    <path d="M105.433,86.513 L100.825,90.761 L102.049,87.233 L34.443,57.857 C30.267,65.201 28.611,67.865 28.611,67.865 C33.939,72.761 68.138,87.593 86.281,95.297 C87.433,105.665 89.089,135.832 94.849,159.232 L183.695,128.704 C183.695,128.704 169.871,82.193 105.433,86.441 z" fill-opacity="0" stroke="#373435" stroke-width="2.133" stroke-linejoin="round" id="path54428"/>
    <path d="M85.777,89.609 L85.993,91.841 L86.209,94.001 L86.425,96.161" fill-opacity="0" stroke="#373435" stroke-width="2.133" stroke-linecap="round" stroke-linejoin="round" id="path54462"/>
    <path d="M66.986,45.833 C66.986,45.833 65.618,44.681 61.586,43.385 C61.586,43.385 65.114,11.849 89.449,6.305 C89.449,6.305 106.225,0.473 117.817,9.833 C117.817,9.833 139.776,12.857 138.984,40.721 C138.984,40.721 140.568,56.561 129.192,71.177 L115.585,73.769 z" fill-opacity="0" stroke="#373435" stroke-width="2.133" stroke-linejoin="round" id="path54440"/>
    <path d="M106.225,90.905 L105.217,86.801 C117.097,82.553 124.8,75.137 129.192,56.345 C129.192,56.345 130.848,51.305 127.032,51.161 C123.216,51.017 120.625,53.969 120.625,53.969 C118.105,51.521 115.225,34.673 115.225,34.673 L112.129,43.457 C104.785,40.145 87.577,38.633 87.577,38.633 C86.137,37.121 84.194,25.529 84.194,25.529 C83.186,28.049 80.81,38.489 80.81,38.489 C76.058,37.913 67.994,40.289 67.994,40.289 C62.234,70.457 75.914,85.937 96.505,87.737 L96.721,92.777 C96.721,92.777 98.665,95.801 101.617,95.225 C106.153,94.433 106.297,90.977 106.297,90.977 z" fill="#FDDDC7" id="path54444"/>
    <path d="M91.681,22.001 C91.681,22.001 92.401,30.569 93.553,38.705" fill-opacity="0" stroke="#373435" stroke-width="2.133" stroke-linecap="round" stroke-linejoin="round" id="path54640"/>
    <path d="M100.825,26.681 C100.825,26.681 100.681,35.249 101.689,40.073" fill-opacity="0" stroke="#373435" stroke-width="2.133" stroke-linecap="round" stroke-linejoin="round" id="path54642"/>
    <path d="M73.178,24.809 C73.178,24.809 69.65,31.361 67.922,40.217" fill-opacity="0" stroke="#373435" stroke-width="2.133" stroke-linecap="round" stroke-linejoin="round" id="path54644"/>
    <path d="M106.225,90.905 L105.217,86.801 C117.097,82.553 124.8,75.137 129.192,56.345 C129.192,56.345 130.848,51.305 127.032,51.161 C123.216,51.017 120.625,53.969 120.625,53.969 C118.105,51.521 115.225,34.673 115.225,34.673 L112.129,43.457 C104.785,40.145 87.577,38.633 87.577,38.633 C86.137,37.121 84.194,25.529 84.194,25.529 C83.186,28.049 80.81,38.489 80.81,38.489 C76.058,37.913 67.994,40.289 67.994,40.289 C62.234,70.457 75.914,85.937 96.505,87.737 L96.721,92.777 C96.721,92.777 98.665,95.801 101.617,95.225 C106.153,94.433 106.297,90.977 106.297,90.977 z" fill-opacity="0" stroke="#373435" stroke-width="2.133" stroke-linejoin="round" id="path54446"/>
    <path d="M82.826,51.089 C82.826,51.953 80.378,52.601 77.426,52.529 C74.474,52.457 72.098,51.665 72.098,50.729 C72.098,49.865 74.546,49.217 77.498,49.289 C80.45,49.361 82.826,50.153 82.826,51.089 z" fill="#F8B7B3" fill-opacity="0.702" id="path54586"/>
    <path d="M78.794,45.185 C78.794,45.185 78.65,46.193 78.434,49.073" fill-opacity="0" stroke="#373435" stroke-width="2.482" stroke-linecap="round" stroke-linejoin="round" id="path54590"/>
    <path d="M108.889,52.673 C108.889,53.537 106.513,54.329 103.561,54.329 C100.609,54.329 98.161,53.681 98.161,52.817 C98.161,51.953 100.537,51.161 103.489,51.161 C106.441,51.161 108.889,51.809 108.889,52.673 z" fill="#F8B7B3" fill-opacity="0.702" id="path54592"/>
    <path d="M103.633,47.633 C103.633,47.633 103.417,48.209 103.201,51.017" fill-opacity="0" stroke="#373435" stroke-width="2.482" stroke-linecap="round" stroke-linejoin="round" id="path54596"/>
    <path d="M90.457,49.865 C91.177,52.601 85.489,50.657 86.137,53.321 C86.569,55.049 90.529,54.905 91.825,54.905" fill-opacity="0" stroke="#373435" stroke-width="1.714" stroke-linecap="round" stroke-linejoin="round" id="path54598"/>
    <path d="M82.826,65.561 C82.826,65.561 94.921,62.609 105.505,61.241 C105.505,61.241 104.137,71.753 94.489,72.329 C84.77,72.905 82.898,65.561 82.898,65.561 z" fill="#9D7371" id="path54602"/>
    <path d="M82.826,65.561 C82.826,65.561 94.921,62.609 105.505,61.241 C105.505,61.241 104.137,71.753 94.489,72.329 C84.77,72.905 82.898,65.561 82.898,65.561 z" fill-opacity="0" stroke="#373435" stroke-width="1.6" stroke-linejoin="round" id="path54604"/>
    <path d="M24.867,48.209 C24.867,48.209 22.059,47.633 20.043,49.793 C18.459,51.449 16.227,53.465 16.803,55.265 C17.811,58.361 23.427,57.209 27.675,54.401" fill-opacity="0" stroke="#373435" stroke-width="2.133" stroke-linecap="round" stroke-linejoin="round" id="path54418"/>
    <path d="M11.907,57.065 C11.907,57.065 16.083,59.945 22.491,58.217 C22.491,58.217 24.075,57.713 24.291,56.273" fill-opacity="0" stroke="#373435" stroke-width="2.133" stroke-linecap="round" stroke-linejoin="round" id="path54420"/>
    <path d="M13.203,61.601 C13.203,61.601 16.227,62.465 18.747,62.105 C21.123,61.817 22.707,61.097 22.923,59.945 C23.211,58.577 21.843,57.641 21.843,57.641" fill-opacity="0" stroke="#373435" stroke-width="2.133" stroke-linecap="round" stroke-linejoin="round" id="path54422"/>
    <path d="M20.763,65.633 C20.763,65.633 23.139,64.769 23.427,63.185 C23.643,62.033 22.635,61.385 22.635,61.385" fill-opacity="0" stroke="#373435" stroke-width="2.133" stroke-linecap="round" stroke-linejoin="round" id="path54424"/>
  </g>
  <g id="Layer_1">
    <path d="M152.951,159.664 C152.951,159.664 151.312,166.637 146.262,170.246 C137.952,174.988 132.576,163.912 132.576,163.912 C132.576,163.912 112.705,170.535 100.465,178.527 C100.465,178.527 86.857,203.657 82.25,238.504 C82.25,238.504 77.354,253.334 88.369,255.998 C92.041,256.934 97.944,256.359 103.992,248.871 C103.632,258.807 102.193,308.991 102.121,319.143 C140.566,319.578 150.872,319.686 180.238,319.646 L180.311,319.719 C180.815,308.343 182.902,240.662 182.902,240.662 C182.902,240.662 188.591,257.44 198.598,255.352 C208.606,253.264 205.799,242.535 205.799,242.535 C206.087,237.783 193.846,182.632 186.07,173.848 L160.002,166.111 C160.002,166.028 160.01,165.937 160.008,165.855 z" fill="url(#Gradient_2)" id="path54490"/>
    <g id="path57203">
      <path d="M132.576,163.912 L125.808,166.432 L127.351,176.063 L129.12,181.552 L141.216,171.4 L135.947,168.422 z" fill="#FFFFFF"/>
      <path d="M132.576,163.912 L125.808,166.432 L127.351,176.063 L129.12,181.552 L141.216,171.4 L135.947,168.422 z" fill-opacity="0" stroke="#000000" stroke-width="1"/>
    </g>
    <path d="M171.311,147.856 L148.488,149.008 L148.128,170.392 L166.271,166.432 z" fill="#FDDDC7" id="path54404"/>
    <path d="M171.311,147.856 L162.824,148.284 C164.648,155.425 165.512,156.722 166.271,166.432 z" fill-opacity="0" stroke="#373435" stroke-width="2.133" stroke-linejoin="round" id="path54406"/>
    <g id="g54454">
      <path d="M120.625,53.969 L121.345,67.001 C122.784,66.929 131.568,65.489 133.224,60.089 C135.456,52.673 129.624,50.873 125.88,51.233 C125.88,51.233 122.352,51.665 120.625,53.969 z" fill="#FDDDC7" id="path54450"/>
      <path d="M121.345,67.001 C122.784,66.929 131.568,65.489 133.224,60.089 C135.456,52.673 129.624,50.873 125.88,51.233 C125.88,51.233 122.352,51.665 120.625,53.969" fill-opacity="0" stroke="#373435" stroke-width="2.133" stroke-linecap="round" stroke-linejoin="round" id="path54452"/>
    </g>
    <path d="M85.777,89.609 L85.993,91.841 L86.209,94.001 L86.425,96.161 z" fill="url(#Gradient_3)" id="path54460"/>
    <g id="g54470">
      <path d="M113.713,101.129 C110.185,99.761 105.865,101.273 106.369,107.969 C107.017,116.248 115.153,118.984 116.521,119.416 C114.937,115.384 113.281,110.777 113.857,101.201 L113.641,101.129 z" fill="#FDDDC7" id="path54466"/>
      <path d="M113.713,101.129 C110.185,99.761 105.865,101.273 106.369,107.969 C107.017,116.248 115.153,118.984 116.521,119.416 C114.937,115.384 113.281,110.777 113.857,101.201 L113.641,101.129 z" fill-opacity="0" stroke="#373435" stroke-width="2.133" stroke-linejoin="round" id="path54468"/>
    </g>
    <g id="g54476">
      <path d="M185.855,64.985 C185.855,64.985 217.102,83.777 179.159,126.4 L174.623,131.584 L117.745,79.313 C117.745,79.313 110.041,73.985 113.497,60.521 C113.497,60.521 116.953,47.273 144.744,47.777 L139.704,41.657 C139.704,41.657 177.863,39.785 185.855,64.985 z" fill="#82654C" id="path54472"/>
      <path d="M185.855,64.985 C185.855,64.985 217.102,83.777 179.159,126.4 L174.623,131.584 L117.745,79.313 C117.745,79.313 110.041,73.985 113.497,60.521 C113.497,60.521 116.953,47.273 144.744,47.777 L139.704,41.657 C139.704,41.657 177.863,39.785 185.855,64.985 z" fill-opacity="0" stroke="#373435" stroke-width="2.133" stroke-linejoin="round" id="path54474"/>
    </g>
    <path d="M134.016,166.601 L136.943,169.417 L152.52,174.352 L151.98,163.404 L152.52,155.488 C160.583,151.96 169.367,143.608 174.983,125.104 L179.591,106.457 C179.591,106.457 170.375,107.249 180.455,84.641 C180.455,84.641 161.951,80.897 143.016,77.369 C140.208,76.865 153.672,72.689 153.672,72.473 C147.84,71.897 135.168,73.121 126.384,75.569 C126.384,75.569 120.409,75.209 117.241,86.009 C110.113,110.273 103.057,150.664 132.792,156.568 C132.792,156.568 132.936,156.64 134.016,157 L134.016,166.601" fill="#FDDDC7" id="path54478"/>
    <path d="M152.443,161.387 L152.52,155.488 C160.583,151.96 169.367,143.608 174.983,125.104 L179.591,106.457 C179.591,106.457 170.375,107.249 180.455,84.641 C180.455,84.641 161.951,80.897 143.016,77.369 C140.208,76.865 153.672,72.689 153.672,72.473 C147.84,71.897 135.168,73.121 126.384,75.569 C126.384,75.569 120.409,75.209 117.241,86.009 C110.113,110.273 103.057,150.664 132.792,156.568 C132.792,156.568 132.936,156.64 134.016,157 L134.016,166.375" fill-opacity="0" stroke="#373435" stroke-width="2.133" stroke-linejoin="round" id="path54480"/>
    <path d="M180.239,319.647 L180.311,319.719 C180.815,308.343 182.903,240.663 182.903,240.663 C182.903,240.663 188.591,257.439 198.598,255.351 C208.606,253.263 205.798,242.535 205.798,242.535 C206.086,237.783 193.847,182.632 186.071,173.848 L152.592,163.912 C140.784,180.832 132.576,163.912 132.576,163.912 C132.576,163.912 112.705,170.536 100.465,178.528 C100.465,178.528 86.857,203.656 82.25,238.503 C82.25,238.503 77.354,253.335 88.369,255.999 C92.041,256.935 97.945,256.359 103.993,248.871 C103.633,258.807 102.193,308.991 102.121,319.143 M141.216,171.4 C141.216,171.4 134.232,177.592 129.12,181.552 C129.12,181.552 125.52,171.256 125.808,166.432" fill-opacity="0" stroke="#373435" stroke-width="2.132" stroke-linecap="round" stroke-linejoin="round" id="path54486"/>
    <g id="path54492">
      <path d="M143.376,171.76 C143.376,171.76 154.176,178.384 155.544,180.688 C155.544,180.688 160.152,171.04 160.008,165.856 L152.952,159.664 C152.952,159.664 150.72,169.24 143.376,171.76 z" fill="#FFFFFF"/>
      <path d="M143.376,171.76 C143.376,171.76 154.176,178.384 155.544,180.688 C155.544,180.688 160.152,171.04 160.008,165.856 L152.952,159.664 C152.952,159.664 150.72,169.24 143.376,171.76 z" fill-opacity="0" stroke="#373435" stroke-width="2.133" stroke-linejoin="round"/>
    </g>
    <g id="g54500">
      <path d="M189.023,62.609 C187.439,60.809 184.703,62.033 184.199,63.257 C183.911,64.121 184.271,65.345 184.703,65.993 C185.423,67.001 187.727,67.289 187.799,67.433 C186.143,69.161 184.343,70.097 184.847,72.545 C185.135,73.841 186.431,74.273 187.439,73.625 C188.375,72.977 189.023,72.761 189.599,72.185 C189.023,72.833 188.375,73.265 187.727,73.769 C186.431,74.849 186.503,76.001 186.935,76.793 C187.583,77.801 188.951,77.729 190.103,77.297 C190.751,76.937 191.255,76.505 191.759,76.289 C191.255,76.649 190.751,76.865 190.103,77.297 C189.167,77.801 188.735,79.889 189.887,80.393 C191.615,81.185 193.775,79.889 194.711,78.737 C194.711,80.393 194.639,83.057 196.727,81.401 C198.094,80.321 198.958,76.433 197.374,76.145 C197.734,75.569 197.662,74.417 197.302,73.913 C196.727,72.977 195.863,72.905 194.783,73.409 C196.51,71.609 194.495,68.801 192.551,70.169 C194.567,67.721 191.039,65.921 188.951,66.713 C189.527,65.993 189.815,64.841 189.383,63.473 L188.807,62.609 z" fill="#FDDDC7" id="path54496"/>
      <path d="M189.023,62.609 C187.439,60.809 184.703,62.033 184.199,63.257 C183.911,64.121 184.271,65.345 184.703,65.993 C185.423,67.001 187.727,67.289 187.799,67.433 C186.143,69.161 184.343,70.097 184.847,72.545 C185.135,73.841 186.431,74.273 187.439,73.625 C188.375,72.977 189.023,72.761 189.599,72.185 C189.023,72.833 188.375,73.265 187.727,73.769 C186.431,74.849 186.503,76.001 186.935,76.793 C187.583,77.801 188.951,77.729 190.103,77.297 C190.751,76.937 191.255,76.505 191.759,76.289 C191.255,76.649 190.751,76.865 190.103,77.297 C189.167,77.801 188.735,79.889 189.887,80.393 C191.615,81.185 193.775,79.889 194.711,78.737 C194.711,80.393 194.639,83.057 196.727,81.401 C198.094,80.321 198.958,76.433 197.374,76.145 C197.734,75.569 197.662,74.417 197.302,73.913 C196.727,72.977 195.863,72.905 194.783,73.409 C196.51,71.609 194.495,68.801 192.551,70.169 C194.567,67.721 191.039,65.921 188.951,66.713 C189.527,65.993 189.815,64.841 189.383,63.473 L188.807,62.609 z" fill-opacity="0" stroke="#373435" stroke-width="2.133" stroke-linejoin="round" id="path54498"/>
    </g>
    <g id="g54506">
      <path d="M183.767,116.104 C188.015,116.392 191.687,119.92 188.015,126.472 C183.407,134.536 173.903,133.528 172.319,133.312 C175.847,130 179.663,126.04 183.551,116.104 L183.767,116.176 z" fill="#FDDDC7" id="path54502"/>
      <path d="M183.767,116.104 C188.015,116.392 191.687,119.92 188.015,126.472 C183.407,134.536 173.903,133.528 172.319,133.312 C175.847,130 179.663,126.04 183.551,116.104 L183.767,116.176 z" fill-opacity="0" stroke="#373435" stroke-width="2.133" stroke-linejoin="round" id="path54504"/>
    </g>
    <g id="g54512">
      <path d="M116.089,215.104 C116.089,215.104 105.073,180.688 103.993,171.832 C102.913,162.976 106.369,160.528 109.897,159.448 C114.361,158.152 120.193,160.384 121.705,168.52 C123.144,176.656 127.536,213.592 127.536,213.592 C127.536,213.592 135.672,225.04 133.08,229.431 C130.488,233.895 116.089,233.463 114.217,231.663 C112.345,229.791 116.089,215.032 116.089,215.032 z" fill="#FDDDC7" id="path54508"/>
      <path d="M116.089,215.104 C116.089,215.104 105.073,180.688 103.993,171.832 C102.913,162.976 106.369,160.528 109.897,159.448 C114.361,158.152 120.193,160.384 121.705,168.52 C123.144,176.656 127.536,213.592 127.536,213.592 C127.536,213.592 135.672,225.04 133.08,229.431 C130.488,233.895 116.089,233.463 114.217,231.663 C112.345,229.791 116.089,215.032 116.089,215.032 z" fill-opacity="0" stroke="#373435" stroke-width="2.133" stroke-linejoin="round" id="path54510"/>
    </g>
    <g id="g54518">
      <path d="M162.239,159.952 C161.663,168.88 166.199,204.664 166.199,204.664 C166.199,204.664 160.655,218.128 161.303,220.648 C162.167,224.032 176.855,225.832 180.239,221.944 C183.623,218.056 177.719,205.312 177.719,205.312 C177.719,205.312 180.239,168.16 180.311,159.952 C180.383,151.672 175.271,147.496 170.663,148 L163.247,148.36 L162.239,160.024 z" fill="#FDDDC7" id="path54514"/>
      <path d="M162.239,159.952 C161.663,168.88 166.199,204.664 166.199,204.664 C166.199,204.664 160.655,218.128 161.303,220.648 C162.167,224.032 176.855,225.832 180.239,221.944 C183.623,218.056 177.719,205.312 177.719,205.312 C177.719,205.312 180.239,168.16 180.311,159.952 C180.383,151.672 175.271,147.496 170.663,148 L163.247,148.36 L162.239,160.024 z" fill-opacity="0" stroke="#373435" stroke-width="2.133" stroke-linejoin="round" id="path54516"/>
    </g>
    <g id="g54524">
      <path d="M126.024,203.296 C128.904,200.632 126.528,198.688 126.528,198.688 C125.304,197.68 125.016,197.536 125.016,197.536 C126.528,197.608 127.32,196.024 127.32,195.016 C127.32,193.792 125.88,192.712 124.656,192.352 C125.304,192.352 127.176,191.704 127.176,190.48 C127.176,188.464 125.88,188.032 125.376,187.96 C125.952,187.816 126.384,187.384 126.744,186.88 C127.32,186.016 127.248,185.152 126.888,184.144 C126.528,183.064 125.016,182.056 123.936,182.2 C123.936,182.2 119.977,181.264 115.081,181.696 C113.065,181.912 109.465,183.208 107.737,187.168 C107.737,187.168 105.001,194.944 105.001,205.6 L102.337,211.36 C102.337,211.36 105.433,217.84 112.561,218.344 L115.153,210.856 C117.241,209.2 117.817,204.88 117.817,204.88 C117.817,204.88 121.489,199.624 125.88,203.224 z" fill="#FDDDC7" id="path54520"/>
      <path d="M126.024,203.296 C128.904,200.632 126.528,198.688 126.528,198.688 C125.304,197.68 125.016,197.536 125.016,197.536 C126.528,197.608 127.32,196.024 127.32,195.016 C127.32,193.792 125.88,192.712 124.656,192.352 C125.304,192.352 127.176,191.704 127.176,190.48 C127.176,188.464 125.88,188.032 125.376,187.96 C125.952,187.816 126.384,187.384 126.744,186.88 C127.32,186.016 127.248,185.152 126.888,184.144 C126.528,183.064 125.016,182.056 123.936,182.2 C123.936,182.2 119.977,181.264 115.081,181.696 C113.065,181.912 109.465,183.208 107.737,187.168 C107.737,187.168 105.001,194.944 105.001,205.6 L102.337,211.36 C102.337,211.36 105.433,217.84 112.561,218.344 L115.153,210.856 C117.241,209.2 117.817,204.88 117.817,204.88 C117.817,204.88 121.489,199.624 125.88,203.224 z" fill-opacity="0" stroke="#373435" stroke-width="2.133" stroke-linejoin="round" id="path54522"/>
    </g>
    <g id="g54530">
      <path d="M165.911,200.344 C162.455,198.4 164.831,196.312 164.831,196.312 C165.767,195.016 165.983,194.8 165.983,194.8 C164.543,195.232 163.247,193.936 163.103,192.856 C162.959,191.416 163.895,190.48 165.119,189.904 C164.471,190.048 162.527,189.616 162.239,188.392 C161.735,186.448 163.103,185.656 163.535,185.44 C162.887,185.44 162.167,185.224 161.807,184.792 C161.087,184.072 160.943,183.208 161.015,182.2 C161.087,181.048 162.311,179.752 163.391,179.608 C163.391,179.608 167.063,177.736 171.815,177.016 C173.831,176.728 177.575,177.088 180.239,180.616 C180.239,180.616 183.983,185.224 185.351,196.528 L190.247,207.256 C190.247,207.256 187.007,212.44 180.743,211.216 L178.511,204.448 C176.063,203.296 174.623,200.2 174.623,200.2 C174.623,200.2 169.367,195.736 165.911,200.272 z" fill="#FDDDC7" id="path54526"/>
      <path d="M165.911,200.344 C162.455,198.4 164.831,196.312 164.831,196.312 C165.767,195.016 165.983,194.8 165.983,194.8 C164.543,195.232 163.247,193.936 163.103,192.856 C162.959,191.416 163.895,190.48 165.119,189.904 C164.471,190.048 162.527,189.616 162.239,188.392 C161.735,186.448 163.103,185.656 163.535,185.44 C162.887,185.44 162.167,185.224 161.807,184.792 C161.087,184.072 160.943,183.208 161.015,182.2 C161.087,181.048 162.311,179.752 163.391,179.608 C163.391,179.608 167.063,177.736 171.815,177.016 C173.831,176.728 177.575,177.088 180.239,180.616 C180.239,180.616 183.983,185.224 185.351,196.528 L190.247,207.256 C190.247,207.256 187.007,212.44 180.743,211.216 L178.511,204.448 C176.063,203.296 174.623,200.2 174.623,200.2 C174.623,200.2 169.367,195.736 165.911,200.272 z" fill-opacity="0" stroke="#373435" stroke-width="2.133" stroke-linejoin="round" id="path54528"/>
    </g>
    <g id="g54536">
      <path d="M102.337,211.216 L101.473,212.512 L100.681,213.88 L99.961,215.248 L99.097,216.544 L98.233,217.84 L97.513,219.28 L96.649,220.576 L95.929,221.944 L95.137,223.24 L94.273,224.536 L93.481,225.904 L92.689,227.272 L91.897,228.64 L91.033,229.936 L90.241,231.231 L89.449,232.599 L88.657,233.967 L87.865,235.263 L87.073,236.631 L86.137,237.927 L85.345,239.295 z" fill="url(#Gradient_4)" id="path54532"/>
      <path d="M102.337,211.216 L101.473,212.512 L100.681,213.88 L99.961,215.248 L99.097,216.544 L98.233,217.84 L97.513,219.28 L96.649,220.576 L95.929,221.944 L95.137,223.24 L94.273,224.536 L93.481,225.904 L92.689,227.272 L91.897,228.64 L91.033,229.936 L90.241,231.231 L89.449,232.599 L88.657,233.967 L87.865,235.263 L87.073,236.631 L86.137,237.927 L85.345,239.295" fill-opacity="0" stroke="#373435" stroke-width="2.133" stroke-linecap="round" stroke-linejoin="round" id="path54534"/>
    </g>
    <g id="g54542">
      <path d="M112.633,218.416 L112.201,219.928 L111.841,221.44 L111.337,222.88 L110.905,224.392 L110.473,225.904 L110.113,227.488 L109.609,228.928 L109.249,230.512 L108.817,232.023 L108.313,233.463 L107.881,234.975 L107.377,236.487 L106.945,237.999 L106.585,239.511 L106.153,241.023 L105.649,242.535 L105.217,244.047 L104.785,245.559 L104.353,247.071 L103.921,248.583 L103.561,250.095 z" fill="url(#Gradient_5)" id="path54538"/>
      <path d="M112.633,218.416 L112.201,219.928 L111.841,221.44 L111.337,222.88 L110.905,224.392 L110.473,225.904 L110.113,227.488 L109.609,228.928 L109.249,230.512 L108.817,232.023 L108.313,233.463 L107.881,234.975 L107.377,236.487 L106.945,237.999 L106.585,239.511 L106.153,241.023 L105.649,242.535 L105.217,244.047 L104.785,245.559 L104.353,247.071 L103.921,248.583 L103.561,250.095" fill-opacity="0" stroke="#373435" stroke-width="2.133" stroke-linecap="round" stroke-linejoin="round" id="path54540"/>
    </g>
    <g id="g54548">
      <path d="M190.319,207.256 L190.895,208.624 L191.471,210.064 L192.119,211.432 L192.695,212.8 L193.343,214.168 L193.919,215.536 L194.567,216.904 L195.143,218.272 L195.719,219.64 L196.295,221.08 L196.871,222.448 L197.375,223.888 L197.951,225.256 L198.526,226.624 L199.102,227.992 L199.678,229.431 L200.11,230.871 L200.614,232.311 L201.046,233.751 z" fill="url(#Gradient_6)" id="path54544"/>
      <path d="M190.319,207.256 L190.895,208.624 L191.471,210.064 L192.119,211.432 L192.695,212.8 L193.343,214.168 L193.919,215.536 L194.567,216.904 L195.143,218.272 L195.719,219.64 L196.295,221.08 L196.871,222.448 L197.375,223.888 L197.951,225.256 L198.526,226.624 L199.102,227.992 L199.678,229.431 L200.11,230.871 L200.614,232.311 L201.046,233.751" fill-opacity="0" stroke="#373435" stroke-width="2.133" stroke-linecap="round" stroke-linejoin="round" id="path54546"/>
    </g>
    <g id="g54554">
      <path d="M179.087,222.736 L179.447,224.248 L179.807,225.76 L180.167,227.272 L180.527,228.784 L180.815,230.296 L181.247,231.807 L181.535,233.319 L181.895,234.831 L182.255,236.343 L182.615,237.855 L182.903,239.367 L183.263,240.951 L183.623,242.463 L183.983,243.975 L184.271,245.487 z" fill="url(#Gradient_7)" id="path54550"/>
      <path d="M179.087,222.736 L179.447,224.248 L179.807,225.76 L180.167,227.272 L180.527,228.784 L180.815,230.296 L181.247,231.807 L181.535,233.319 L181.895,234.831 L182.255,236.343 L182.615,237.855 L182.903,239.367 L183.263,240.951 L183.623,242.463 L183.983,243.975 L184.271,245.487" fill-opacity="0" stroke="#373435" stroke-width="2.133" stroke-linecap="round" stroke-linejoin="round" id="path54552"/>
    </g>
    <g id="g54560">
      <path d="M114.217,231.303 C116.089,233.175 130.488,233.535 133.008,229.072 C135.096,225.544 130.344,217.624 128.328,214.528 L127.968,214.456 L128.04,221.728 C122.353,220.648 117.313,223.168 117.313,223.168 L115.945,215.968 C115.801,216.112 115.657,216.256 115.513,216.472 C114.577,220.432 112.633,229.864 114.073,231.303 z" fill="#B6D885" id="path54556"/>
      <path d="M114.217,231.303 C116.089,233.175 130.488,233.535 133.008,229.072 C135.096,225.544 130.344,217.624 128.328,214.528 L127.968,214.456 L128.04,221.728 C122.353,220.648 117.313,223.168 117.313,223.168 L115.945,215.968 C115.801,216.112 115.657,216.256 115.513,216.472 C114.577,220.432 112.633,229.864 114.073,231.303 z" fill-opacity="0" stroke="#373435" stroke-width="2.133" stroke-linejoin="round" id="path54558"/>
    </g>
    <g id="g54566">
      <path d="M177.215,211.072 C171.527,209.992 166.631,210.784 166.631,210.784 L166.199,204.448 C166.127,204.52 166.127,204.592 166.055,204.592 C165.191,206.68 160.727,217.912 161.303,220.216 C162.167,223.6 176.855,225.4 180.239,221.512 C183.623,217.624 177.719,204.88 177.719,204.88 L177.215,211 z" fill="#B6D885" id="path54562"/>
      <path d="M177.215,211.072 C171.527,209.992 166.631,210.784 166.631,210.784 L166.199,204.448 C166.127,204.52 166.127,204.592 166.055,204.592 C165.191,206.68 160.727,217.912 161.303,220.216 C162.167,223.6 176.855,225.4 180.239,221.512 C183.623,217.624 177.719,204.88 177.719,204.88 L177.215,211 z" fill-opacity="0" stroke="#373435" stroke-width="2.133" stroke-linejoin="round" id="path54564"/>
    </g>
    <g id="g54580">
      <path d="M132.144,110.057 C131.928,111.137 128.832,111.353 125.232,110.633 C121.632,109.841 118.897,108.401 119.113,107.321 C119.329,106.241 122.424,106.025 126.024,106.745 C129.624,107.465 132.36,108.977 132.144,110.057 z" fill="#F8B7B3" fill-opacity="0.702" id="path54568"/>
      <path d="M127.68,106.313 L128.4,100.121 C128.4,100.121 128.04,102.713 127.68,106.313 z" fill="#FEFEFE" id="path54570"/>
      <path d="M128.4,100.121 C128.4,100.121 128.04,102.713 127.68,106.313" fill-opacity="0" stroke="#373435" stroke-width="3.219" stroke-linecap="round" stroke-linejoin="round" id="path54572"/>
      <path d="M163.967,116.032 C163.751,117.112 160.655,117.4 157.056,116.752 C153.456,116.104 150.72,114.664 150.864,113.584 C151.08,112.504 154.176,112.216 157.776,112.864 C161.375,113.512 164.111,114.952 163.967,116.032 z" fill="#F8B7B3" fill-opacity="0.702" id="path54574"/>
      <path d="M156.696,111.857 L157.344,105.305 C157.344,105.305 156.84,109.049 156.696,111.857 z" fill="#FEFEFE" id="path54576"/>
      <path d="M157.344,105.377 C157.344,105.377 156.84,109.121 156.696,111.928" fill-opacity="0" stroke="#373435" stroke-width="3.219" stroke-linecap="round" stroke-linejoin="round" id="path54578"/>
    </g>
    <path d="M140.064,111.856 C139.632,115.888 133.008,110.345 132.504,114.232 C132.216,116.752 137.544,118.624 139.272,119.272" fill-opacity="0" stroke="#373435" stroke-width="2.013" stroke-linecap="round" stroke-linejoin="round" id="path54582"/>
    <path d="M153.456,130 C152.88,131.008 145.032,141.952 133.152,135.688" fill-opacity="0" stroke="#373435" stroke-width="2.133" stroke-linecap="round" stroke-linejoin="round" id="path54584"/>
    <g id="g54600">
      <path d="M78.434,49.001 L78.794,45.113 C78.794,45.113 78.65,46.121 78.434,49.001 z" fill="#FEFEFE" id="path54588"/>
      <path d="M103.129,51.017 L103.561,47.633 C103.561,47.633 103.345,48.209 103.129,51.017 z" fill="#FEFEFE" id="path54594"/>
    </g>
    <path d="M169.871,183.568 L163.319,185.584 C163.319,185.584 166.343,184.144 169.871,183.568 z" fill="#FDDDC7" id="path54608"/>
    <path d="M163.319,185.584 C163.319,185.584 166.343,184.144 169.871,183.568" fill-opacity="0" stroke="#373435" stroke-width="2.133" stroke-linecap="round" stroke-linejoin="round" id="path54610"/>
    <path d="M170.591,187.888 L164.399,190.12 C164.399,190.12 168.215,188.248 170.591,187.888 z" fill="#FDDDC7" id="path54612"/>
    <path d="M164.399,190.12 C164.399,190.12 168.215,188.248 170.591,187.888" fill-opacity="0" stroke="#373435" stroke-width="2.133" stroke-linecap="round" stroke-linejoin="round" id="path54614"/>
    <path d="M171.383,192.928 L165.407,195.376 C166.415,194.368 169.583,193.144 171.383,192.928 z" fill="#FDDDC7" id="path54616"/>
    <path d="M165.407,195.376 C166.415,194.368 169.583,193.144 171.383,192.928" fill-opacity="0" stroke="#373435" stroke-width="2.133" stroke-linecap="round" stroke-linejoin="round" id="path54618"/>
    <path d="M125.952,188.32 L118.033,186.952 C118.033,186.952 123.36,186.88 125.952,188.32 z" fill="#FDDDC7" id="path54620"/>
    <path d="M117.961,186.952 C117.961,186.952 123.288,186.88 125.88,188.32" fill-opacity="0" stroke="#373435" stroke-width="2.133" stroke-linecap="round" stroke-linejoin="round" id="path54622"/>
    <path d="M124.944,192.496 L118.321,192.136 C118.321,192.136 120.697,191.776 124.944,192.496 z" fill="#FDDDC7" id="path54624"/>
    <path d="M118.321,192.136 C118.321,192.136 120.697,191.776 124.944,192.496" fill-opacity="0" stroke="#373435" stroke-width="2.133" stroke-linecap="round" stroke-linejoin="round" id="path54626"/>
    <path d="M125.808,198.184 L118.969,197.248 C118.969,197.248 123.288,196.312 125.808,198.184 z" fill="#FDDDC7" id="path54628"/>
    <path d="M118.969,197.176 C118.969,197.176 123.288,196.24 125.808,198.112" fill-opacity="0" stroke="#373435" stroke-width="2.133" stroke-linecap="round" stroke-linejoin="round" id="path54630"/>
    <path d="M121.345,66.425 C121.345,66.425 139.128,61.025 154.392,67.145" fill-opacity="0" stroke="#373435" stroke-width="2.133" stroke-linecap="round" stroke-linejoin="round" id="path54632"/>
    <path d="M137.04,58.073 C137.04,58.073 142.872,56.633 153.456,59.945" fill-opacity="0" stroke="#373435" stroke-width="2.133" stroke-linecap="round" stroke-linejoin="round" id="path54634"/>
    <path d="M161.231,73.841 C161.231,73.841 176.783,79.385 185.711,79.385" fill-opacity="0" stroke="#373435" stroke-width="2.133" stroke-linecap="round" stroke-linejoin="round" id="path54636"/>
    <path d="M175.775,72.473 C175.775,72.473 181.175,74.489 186.431,74.921" fill-opacity="0" stroke="#373435" stroke-width="2.133" stroke-linecap="round" stroke-linejoin="round" id="path54638"/>
  </g>
</svg>
