<?xml version="1.0" encoding="iso-8859-1"?>
<!-- Uploaded to: SVG Repo, www.svgrepo.com, Generator: SVG Repo Mixer Tools -->
<svg height="800px" width="800px" version="1.1" id="Layer_1" xmlns="http://www.w3.org/2000/svg" xmlns:xlink="http://www.w3.org/1999/xlink" 
	 viewBox="0 0 512 512" xml:space="preserve">
<polygon style="fill:#BD8150;" points="508,118 508,134 472,134 40,134 4,134 4,118 "/>
<path style="fill:#140500;" d="M508,138H4c-2.4,0-4-1.6-4-4v-16c0-2.4,1.6-4,4-4h504c2.4,0,4,1.6,4,4v16
	C512,136.4,510.4,138,508,138z M8,130h496v-8H8V130z"/>
<polygon style="fill:#9F633C;" points="472,134 472,166 264,166 248,166 40,166 40,134 "/>
<path style="fill:#140500;" d="M472,170H40c-2.4,0-4-1.6-4-4v-32c0-2.4,1.6-4,4-4h432c2.4,0,4,1.6,4,4v32
	C476,168.4,474.4,170,472,170z M44,162h424v-24H44V162z"/>
<path style="fill:#9F633C;" d="M360.8,378c4.4,0,8,3.6,8,8s-3.6,8-8,8c-30.8,0-56-25.2-56-56c0-22-18-40-40-40v-16
	c30.8,0,56,25.2,56,56C320.8,360,338.8,378,360.8,378z"/>
<path style="fill:#140500;" d="M360.8,398c-33.2,0-60-26.8-60-60c0-20-16-36-36-36c-2.4,0-4-1.6-4-4v-16c0-2.4,1.6-4,4-4
	c33.2,0,60,26.8,60,60c0,20,16,36,36,36c6.8,0,12,5.2,12,12S367.2,398,360.8,398z M268.8,294c22.4,2,40,20.8,40,44
	c0,28.8,23.2,52,52,52c2.4,0,4-1.6,4-4s-1.6-4-4-4c-24.4,0-44-19.6-44-44c0-27.2-21.2-49.6-48-52V294z"/>
<path style="fill:#5D4037;" d="M264,166v220c0,4.4-3.6,8-8,8s-8-3.6-8-8V166H264z"/>
<path style="fill:#9F633C;" d="M204.8,338c0,30.8-25.2,56-56,56c-4.4,0-8-3.6-8-8s3.6-8,8-8c22,0,40-18,40-40c0-30.8,25.2-56,56-56
	v16C222.8,298,204.8,316,204.8,338z"/>
<path style="fill:#140500;" d="M148.8,398c-6.8,0-12-5.2-12-12s5.2-12,12-12c20,0,36-16,36-36c0-33.2,26.8-60,60-60c2.4,0,4,1.6,4,4
	v16c0,2.4-1.6,4-4,4c-20,0-36,16-36,36C208.8,371.2,181.6,398,148.8,398z M240.8,286c-26.8,2-48,24.4-48,52c0,24.4-19.6,44-44,44
	c-2.4,0-4,1.6-4,4s1.6,4,4,4c28.8,0,52-23.2,52-52c0-22.8,17.6-41.6,40-44V286z"/>
<path style="fill:#895129;" d="M248,166v220c0,4.4,3.6,8,8,8s8-3.6,8-8V166"/>
<path style="fill:#140500;" d="M256,398c-6.8,0-12-5.2-12-12V166c0-2.4,1.6-4,4-4s4,1.6,4,4v220c0,2.4,1.6,4,4,4s4-1.6,4-4V166
	c0-2.4,1.6-4,4-4s4,1.6,4,4v220C268,392.8,262.8,398,256,398z"/>
<path d="M148.8,398c-6.8,0-12-5.2-12-12s5.2-12,12-12c20,0,36-16,36-36c0-33.2,26.8-60,60-60c2.4,0,4,1.6,4,4s-1.6,4-4,4
	c-28.8,0-52,23.2-52,52c0,24.4-19.6,44-44,44c-2.4,0-4,1.6-4,4s1.6,4,4,4c28.8,0,52-23.2,52-52c0-24.4,19.6-44,44-44
	c2.4,0,4,1.6,4,4s-1.6,4-4,4c-20,0-36,16-36,36C208.8,371.2,181.6,398,148.8,398z"/>
<path d="M360.8,398c-33.2,0-60-26.8-60-60c0-20-16-36-36-36c-2.4,0-4-1.6-4-4s1.6-4,4-4c24.4,0,44,19.6,44,44c0,28.8,23.2,52,52,52
	c2.4,0,4-1.6,4-4s-1.6-4-4-4c-24.4,0-44-19.6-44-44c0-28.8-23.2-52-52-52c-2.4,0-4-1.6-4-4s1.6-4,4-4c33.2,0,60,26.8,60,60
	c0,20,16,36,36,36c6.8,0,12,5.2,12,12S367.2,398,360.8,398z"/>
<path d="M472,170H40c-2.4,0-4-1.6-4-4v-32c0-2.4,1.6-4,4-4s4,1.6,4,4v28h424v-28c0-2.4,1.6-4,4-4s4,1.6,4,4v32
	C476,168.4,474.4,170,472,170z"/>
<path d="M452,154h-52c-2.4,0-4-1.6-4-4s1.6-4,4-4h52c2.4,0,4,1.6,4,4S454.4,154,452,154z"/>
<path d="M380,154h-12c-2.4,0-4-1.6-4-4s1.6-4,4-4h12c2.4,0,4,1.6,4,4S382.4,154,380,154z"/>
<path d="M508,138H4c-2.4,0-4-1.6-4-4v-16c0-2.4,1.6-4,4-4h504c2.4,0,4,1.6,4,4v16C512,136.4,510.4,138,508,138z M8,130h496v-8H8V130
	z"/>
</svg>